<svg xmlns="http://www.w3.org/2000/svg" viewBox="0 0 512 512" width="512" height="512">
  <rect width="512" height="512" fill="#111111" rx="96"/>
  <!-- Film strip sprocket holes top -->
  <rect x="32" y="36" width="36" height="36" fill="#333" rx="6"/>
  <rect x="96" y="36" width="36" height="36" fill="#333" rx="6"/>
  <rect x="160" y="36" width="36" height="36" fill="#333" rx="6"/>
  <rect x="224" y="36" width="36" height="36" fill="#333" rx="6"/>
  <rect x="288" y="36" width="36" height="36" fill="#333" rx="6"/>
  <rect x="352" y="36" width="36" height="36" fill="#333" rx="6"/>
  <rect x="416" y="36" width="36" height="36" fill="#333" rx="6"/>
  <!-- Film strip sprocket holes bottom -->
  <rect x="32" y="440" width="36" height="36" fill="#333" rx="6"/>
  <rect x="96" y="440" width="36" height="36" fill="#333" rx="6"/>
  <rect x="160" y="440" width="36" height="36" fill="#333" rx="6"/>
  <rect x="224" y="440" width="36" height="36" fill="#333" rx="6"/>
  <rect x="288" y="440" width="36" height="36" fill="#333" rx="6"/>
  <rect x="352" y="440" width="36" height="36" fill="#333" rx="6"/>
  <rect x="416" y="440" width="36" height="36" fill="#333" rx="6"/>
  <!-- Main frame area -->
  <rect x="32" y="88" width="448" height="336" fill="#1a1a1a"/>
  <!-- Stylized snowflake + camera -->
  <text x="256" y="300" font-size="220" text-anchor="middle" font-family="serif" fill="#C17F24">❄</text>
  <!-- Label -->
  <text x="256" y="380" font-size="52" text-anchor="middle" font-family="'Helvetica Neue', sans-serif" font-weight="700" fill="#F8F5F1" letter-spacing="4">FRIDGE</text>
</svg>
